<svg width="64" height="64" viewBox="0 0 64 64" fill="none" xmlns="http://www.w3.org/2000/svg">
  <circle cx="32" cy="32" r="26" fill="#081F35"/>
  <path d="M49.4 32.7C49.4 31.1 49.3 30.1 49.1 29H32V35.8H42C41.8 38 40.5 41.3 37.6 43.5L37.6 43.8L43 48L43.4 48C47.4 44.3 49.4 38.8 49.4 32.7Z" fill="#4285F4"/>
  <path d="M32 50.4C36.9 50.4 41 48.8 43.4 48L37.6 43.5C36.1 44.6 34.2 45.4 32 45.4C27.2 45.4 23.2 42.2 21.8 37.8L21.5 37.9L15.9 42.3L15.8 42.6C18.2 47.4 24.6 50.4 32 50.4Z" fill="#34A853"/>
  <path d="M21.8 37.8C21.4 36.7 21.2 35.5 21.2 34.2C21.2 32.9 21.4 31.7 21.8 30.6L21.8 30.3L16.1 25.8L15.8 26C14.8 28 14.2 30.1 14.2 32.2C14.2 34.3 14.8 36.4 15.8 38.4L21.8 37.8Z" fill="#FBBC05"/>
  <path d="M32 18.9C34.8 18.9 36.7 20.1 37.8 21.1L43.5 15.6C40 12.4 36.9 11 32 11C24.6 11 18.2 14 15.8 18.8L21.8 23.4C23.2 19 27.2 15.8 32 15.8V18.9Z" fill="#EB4335"/>
</svg>
