<svg width="256" height="256" viewBox="0 0 256 256" fill="none" xmlns="http://www.w3.org/2000/svg">
  <rect width="256" height="256" rx="64" fill="url(#bg)" />
  <path d="M64 88C64 74.7452 74.7452 64 88 64H168C181.255 64 192 74.7452 192 88V168C192 181.255 181.255 192 168 192H88C74.7452 192 64 181.255 64 168V88Z" fill="url(#plate)" fill-opacity="0.92"/>
  <path d="M96 101.333C96 96.1787 100.179 92 105.333 92H150.667C155.821 92 160 96.1787 160 101.333C160 106.488 155.821 110.667 150.667 110.667H138.667L151.4 123.4C155.044 127.044 155.044 132.956 151.4 136.6C147.756 140.244 141.844 140.244 138.2 136.6L128 126.4L117.8 136.6C114.156 140.244 108.244 140.244 104.6 136.6C100.956 132.956 100.956 127.044 104.6 123.4L117.333 110.667H105.333C100.179 110.667 96 106.488 96 101.333Z" fill="#DFFBFF"/>
  <path d="M96 154.667C96 149.513 100.179 145.333 105.333 145.333H150.667C155.821 145.333 160 149.513 160 154.667C160 159.821 155.821 164 150.667 164H105.333C100.179 164 96 159.821 96 154.667Z" fill="#56D2CB"/>
  <circle cx="189" cy="67" r="11" fill="#56D2CB"/>
  <defs>
    <linearGradient id="bg" x1="24" y1="17" x2="229" y2="233" gradientUnits="userSpaceOnUse">
      <stop stop-color="#071B31"/>
      <stop offset="1" stop-color="#103653"/>
    </linearGradient>
    <linearGradient id="plate" x1="75" y1="74" x2="182" y2="183" gradientUnits="userSpaceOnUse">
      <stop stop-color="#0B2641"/>
      <stop offset="1" stop-color="#0D2035"/>
    </linearGradient>
  </defs>
</svg>
