<svg width="760" height="180" viewBox="0 0 760 180" fill="none" xmlns="http://www.w3.org/2000/svg">
  <rect width="180" height="180" rx="44" fill="url(#bg)" />
  <path d="M45 62C45 50.402 54.402 41 66 41H114C125.598 41 135 50.402 135 62V118C135 129.598 125.598 139 114 139H66C54.402 139 45 129.598 45 118V62Z" fill="url(#plate)" fill-opacity="0.95"/>
  <path d="M74 73.6666C74 69.4325 77.4325 66 81.6666 66H118.333C122.567 66 126 69.4325 126 73.6666C126 77.9008 122.567 81.3333 118.333 81.3333H108.626L118.934 91.6403C121.928 94.6341 121.928 99.4888 118.934 102.483C115.94 105.477 111.085 105.477 108.091 102.483L99.9998 94.3905L91.9087 102.483C88.9149 105.477 84.0601 105.477 81.0663 102.483C78.0725 99.4888 78.0725 94.6341 81.0663 91.6403L91.3734 81.3333H81.6666C77.4325 81.3333 74 77.9008 74 73.6666Z" fill="#E8FDFF"/>
  <path d="M74 112.333C74 108.099 77.4325 104.667 81.6666 104.667H118.333C122.567 104.667 126 108.099 126 112.333C126 116.567 122.567 120 118.333 120H81.6666C77.4325 120 74 116.567 74 112.333Z" fill="#56D2CB"/>
  <circle cx="133" cy="43" r="8" fill="#56D2CB"/>
  <path d="M239.605 109.114C239.605 95.2985 250.973 86.3477 266.068 86.3477C276.959 86.3477 285.433 90.333 290.376 97.3745L279.675 104.985C276.199 100.334 271.701 97.944 265.877 97.944C257.34 97.944 252.333 102.657 252.333 109.114C252.333 115.699 257.34 120.349 265.877 120.349C271.701 120.349 276.199 118.023 279.675 113.308L290.376 120.919C285.433 127.833 276.959 131.944 266.068 131.944C250.973 131.944 239.605 122.993 239.605 109.114Z" fill="#F2F7FF"/>
  <path d="M298.552 130.939V87.3525H311.279V104.164H330.635V87.3525H343.361V130.939H330.635V114.818H311.279V130.939H298.552Z" fill="#F2F7FF"/>
  <path d="M354.299 130.939V87.3525H367.026V130.939H354.299Z" fill="#F2F7FF"/>
  <path d="M388.347 130.939V98.0098H374.867V87.3525H414.491V98.0098H401.073V130.939H388.347Z" fill="#F2F7FF"/>
  <path d="M422.456 130.939V87.3525H458.061V97.6294H435.056V104.291H455.3V114.251H435.056V120.663H458.886V130.939H422.456Z" fill="#F2F7FF"/>
  <path d="M468.6 130.939V87.3525H482.398L497.365 112.358L512.334 87.3525H526.067L526.193 130.939H513.973L513.846 105.917L501.819 126.032H492.004L479.979 107.044V130.939H468.6Z" fill="#F2F7FF"/>
  <path d="M539.711 130.939V87.3525H575.316V97.6294H552.311V104.291H572.555V114.251H552.311V120.663H576.142V130.939H539.711Z" fill="#F2F7FF"/>
  <path d="M592.913 130.939V98.0098H579.434V87.3525H619.058V98.0098H605.64V130.939H592.913Z" fill="#56D2CB"/>
  <path d="M626.882 130.939V87.3525H662.488V97.6294H639.482V104.291H659.726V114.251H639.482V120.663H663.313V130.939H626.882Z" fill="#56D2CB"/>
  <defs>
    <linearGradient id="bg" x1="17" y1="12" x2="161" y2="164" gradientUnits="userSpaceOnUse">
      <stop stop-color="#071B31"/>
      <stop offset="1" stop-color="#103653"/>
    </linearGradient>
    <linearGradient id="plate" x1="54" y1="49" x2="128" y2="132" gradientUnits="userSpaceOnUse">
      <stop stop-color="#0B2641"/>
      <stop offset="1" stop-color="#0D2035"/>
    </linearGradient>
  </defs>
</svg>
