<svg width="1400" height="900" viewBox="0 0 1400 900" fill="none" xmlns="http://www.w3.org/2000/svg">
  <rect width="1400" height="900" rx="48" fill="url(#bg)" />
  <circle cx="240" cy="205" r="172" fill="#35C7C3" fill-opacity="0.12"/>
  <circle cx="1145" cy="170" r="136" fill="#6AA7FF" fill-opacity="0.14"/>
  <circle cx="1124" cy="711" r="214" fill="#35C7C3" fill-opacity="0.08"/>
  <rect x="101" y="137" width="542" height="624" rx="32" fill="#071D31" fill-opacity="0.88" stroke="#214667"/>
  <rect x="165" y="222" width="209" height="22" rx="11" fill="#5ED7D0" fill-opacity="0.9"/>
  <rect x="165" y="270" width="378" height="18" rx="9" fill="#9BB4CB" fill-opacity="0.55"/>
  <rect x="165" y="307" width="328" height="18" rx="9" fill="#9BB4CB" fill-opacity="0.35"/>
  <rect x="165" y="384" width="414" height="172" rx="24" fill="url(#panel)" />
  <path d="M209 497L291 425L361 487L434 442L535 535H209V497Z" fill="#DDFBFE" fill-opacity="0.88"/>
  <circle cx="285" cy="438" r="26" fill="#56D2CB"/>
  <rect x="165" y="598" width="158" height="34" rx="17" fill="#56D2CB"/>
  <rect x="342" y="598" width="126" height="34" rx="17" fill="#F1F6FF" fill-opacity="0.12"/>
  <rect x="713" y="192" width="583" height="172" rx="36" fill="#081F35" fill-opacity="0.88" stroke="#214667"/>
  <rect x="761" y="246" width="190" height="22" rx="11" fill="#F1F6FF" fill-opacity="0.96"/>
  <rect x="761" y="287" width="261" height="16" rx="8" fill="#9BB4CB" fill-opacity="0.42"/>
  <rect x="1106" y="236" width="122" height="82" rx="24" fill="#56D2CB" fill-opacity="0.18"/>
  <path d="M1166 248C1148.88 248 1135 261.88 1135 279C1135 296.12 1148.88 310 1166 310C1183.12 310 1197 296.12 1197 279C1197 261.88 1183.12 248 1166 248ZM1166 255C1179.25 255 1190 265.75 1190 279C1190 292.25 1179.25 303 1166 303C1152.75 303 1142 292.25 1142 279C1142 265.75 1152.75 255 1166 255Z" fill="#DDFBFE"/>
  <path d="M1157 279.5L1163.5 286L1176 273.5" stroke="#56D2CB" stroke-width="8" stroke-linecap="round" stroke-linejoin="round"/>
  <rect x="713" y="409" width="277" height="312" rx="36" fill="#081F35" fill-opacity="0.88" stroke="#214667"/>
  <rect x="1032" y="409" width="264" height="312" rx="36" fill="#081F35" fill-opacity="0.88" stroke="#214667"/>
  <circle cx="851" cy="500" r="58" fill="url(#avatar)" />
  <circle cx="851" cy="484" r="20" fill="#DCE4EC"/>
  <path d="M816 548C816 526.461 833.461 509 855 509H847C868.539 509 886 526.461 886 548V557H816V548Z" fill="#DCE4EC"/>
  <rect x="781" y="598" width="142" height="18" rx="9" fill="#F1F6FF"/>
  <rect x="781" y="633" width="173" height="16" rx="8" fill="#9BB4CB" fill-opacity="0.45"/>
  <rect x="1084" y="462" width="160" height="20" rx="10" fill="#F1F6FF"/>
  <rect x="1084" y="501" width="118" height="16" rx="8" fill="#9BB4CB" fill-opacity="0.45"/>
  <rect x="1084" y="567" width="160" height="96" rx="24" fill="url(#card)" />
  <path d="M1121 613H1206" stroke="#DDFBFE" stroke-width="18" stroke-linecap="round"/>
  <path d="M1121 648H1178" stroke="#56D2CB" stroke-width="18" stroke-linecap="round"/>
  <defs>
    <linearGradient id="bg" x1="93" y1="50" x2="1250" y2="868" gradientUnits="userSpaceOnUse">
      <stop stop-color="#051629"/>
      <stop offset="1" stop-color="#0D2A45"/>
    </linearGradient>
    <linearGradient id="panel" x1="182" y1="394" x2="542" y2="554" gradientUnits="userSpaceOnUse">
      <stop stop-color="#13385C"/>
      <stop offset="1" stop-color="#0D2743"/>
    </linearGradient>
    <linearGradient id="avatar" x1="801" y1="444" x2="901" y2="557" gradientUnits="userSpaceOnUse">
      <stop stop-color="#153A5B"/>
      <stop offset="1" stop-color="#0E2842"/>
    </linearGradient>
    <linearGradient id="card" x1="1084" y1="567" x2="1244" y2="663" gradientUnits="userSpaceOnUse">
      <stop stop-color="#173C5F"/>
      <stop offset="1" stop-color="#102A44"/>
    </linearGradient>
  </defs>
</svg>
