<svg width="128" height="128" viewBox="0 0 128 128" fill="none" xmlns="http://www.w3.org/2000/svg">
  <rect width="128" height="128" rx="32" fill="url(#bg)" />
  <path d="M32 46.6667C32 40.7756 36.7756 36 42.6667 36H85.3333C91.2244 36 96 40.7756 96 46.6667C96 52.5578 91.2244 57.3333 85.3333 57.3333H74.0444L88.6667 71.9556C92.4286 75.7175 92.4286 81.8159 88.6667 85.5778C84.9048 89.3397 78.8064 89.3397 75.0444 85.5778L64 74.5333L52.9556 85.5778C49.1937 89.3397 43.0952 89.3397 39.3333 85.5778C35.5714 81.8159 35.5714 75.7175 39.3333 71.9556L53.9556 57.3333H42.6667C36.7756 57.3333 32 52.5578 32 46.6667Z" fill="#E8FDFF"/>
  <path d="M32 81.3333C32 75.4422 36.7756 70.6667 42.6667 70.6667H85.3333C91.2244 70.6667 96 75.4422 96 81.3333C96 87.2244 91.2244 92 85.3333 92H42.6667C36.7756 92 32 87.2244 32 81.3333Z" fill="#56D2CB"/>
  <defs>
    <linearGradient id="bg" x1="12" y1="8" x2="116" y2="119" gradientUnits="userSpaceOnUse">
      <stop stop-color="#071B31"/>
      <stop offset="1" stop-color="#103653"/>
    </linearGradient>
  </defs>
</svg>
